# xmcd
#
# Track frame offsets:
#	150
#	24278
#	42247
#	55593
#	76936
#	92040
#	108798
#	128882
#	145401
#	170770
#
# Disc length: 2512 seconds
# Revision: 0
# Processed by: cddbd v1.5.2PL0 Copyright (c) Steve Scherf et al.
# Submitted via: dBpowerAMP V12.0
#
DISCID=7909ce0a
DTITLE=Paul Butler - Cities Made Of Gold
DYEAR=2014
DGENRE=Blues
TTITLE0=Just One Bite
TTITLE1=Dark Side Of Town
TTITLE2=I Remember Mabel
TTITLE3=Can't Make That Call
TTITLE4=She Runs With The Foxes
TTITLE5=Ain't It A Shame
TTITLE6=I Can Hear The Dogs
TTITLE7=Don't Need No Telephone
TTITLE8=Cities Made Of Gold
TTITLE9=Sweet Sea Creature
EXTD=
EXTT0=
EXTT1=
EXTT2=
EXTT3=
EXTT4=
EXTT5=
EXTT6=
EXTT7=
EXTT8=
EXTT9=
PLAYORDER=
